<?xml version="1.0" standalone="no"?>
<!DOCTYPE svg PUBLIC "-//W3C//DTD SVG 20010904//EN"
 "http://www.w3.org/TR/2001/REC-SVG-20010904/DTD/svg10.dtd">
<svg version="1.0" xmlns="http://www.w3.org/2000/svg"
 width="1080.000000pt" height="1080.000000pt" viewBox="0 0 1080.000000 1080.000000"
 preserveAspectRatio="xMidYMid meet">

<g transform="translate(0.000000,1080.000000) scale(0.100000,-0.100000)"
fill="#000000" stroke="none">
<path d="M4570 6593 c0 -43 107 -158 213 -228 32 -21 54 -41 50 -45 -4 -3 -41
-12 -80 -18 -158 -26 -279 -89 -385 -200 -131 -137 -186 -269 -195 -462 -4
-101 -2 -127 21 -214 40 -156 135 -292 270 -385 141 -97 234 -126 406 -125
169 1 265 31 402 127 l58 40 -22 36 c-12 20 -23 38 -25 40 -1 2 -30 -15 -63
-38 -114 -80 -223 -115 -360 -114 -160 0 -299 61 -420 182 -133 134 -186 268
-177 451 6 128 30 203 99 306 77 116 185 199 318 245 86 30 265 33 355 5 135
-40 271 -143 341 -256 l36 -59 38 57 c163 252 494 351 759 227 184 -87 303
-235 347 -434 43 -190 -29 -416 -175 -553 -104 -99 -234 -158 -376 -173 -128
-13 -300 40 -416 128 l-45 35 -23 -41 -24 -41 27 -22 c88 -77 223 -131 360
-146 186 -21 362 30 511 146 246 193 334 547 206 830 -105 232 -319 391 -558
413 -35 3 -63 9 -63 13 0 4 28 27 63 51 85 59 164 135 194 187 14 24 23 45 21
47 -2 3 -96 -27 -209 -65 -227 -77 -351 -110 -513 -136 -125 -20 -197 -15
-401 31 -91 21 -432 127 -552 172 -8 3 -13 -3 -13 -14z"/>
<path d="M4896 5908 c-87 -18 -160 -80 -207 -173 -19 -40 -24 -66 -24 -125 0
-91 26 -152 95 -221 56 -56 118 -79 211 -79 56 0 78 5 131 33 51 26 71 44 105
94 85 127 77 264 -23 382 -60 71 -185 110 -288 89z m45 -127 c32 -33 36 -58
14 -100 -43 -83 -165 -53 -165 41 0 83 91 118 151 59z"/>
<path d="M5740 5888 c-59 -30 -120 -92 -151 -153 -33 -68 -33 -178 0 -247 28
-58 106 -133 168 -160 58 -26 177 -22 238 7 54 26 140 115 156 162 19 53 17
189 -3 235 -24 55 -96 128 -153 154 -70 33 -190 34 -255 2z m104 -104 c37 -37
35 -86 -3 -125 -20 -20 -39 -29 -61 -29 -22 0 -41 9 -61 29 -37 37 -38 79 -3
120 35 41 89 43 128 5z"/>
</g>
</svg>
